# xmcd
#
# Track frame offsets: 
#        150
#        13200
#        28145
#        42615
#        57699
#        75547
#        92980
#        110395
#        128695
#        142607
#        152411
#
# Disc length: 2384 seconds
#
# Revision: 0
# Processed by: cddbd v1.5.2PL0 Copyright (c) Steve Scherf et al.
# Submitted via: ExactAudioCopy v0.99pb5
#
DISCID=8c094e0b
DTITLE=Local Honey - Jingle
DYEAR=2013
DGENRE=Country
TTITLE0=Jingle (Oh, What Fun)
TTITLE1=Santa Baby
TTITLE2=Angels We Have Heard On High (w/Sydney Price)
TTITLE3=If We Make It Through December
TTITLE4=Silent Night
TTITLE5=All That I Want (Live)
TTITLE6=Mary, Did You Know (Live)
TTITLE7=Hard Candy Christmas (Live)
TTITLE8=Holiday Cheer (Live)
TTITLE9=Merriest (Live)
TTITLE10=Favorite Things (Live)
EXTD=
EXTT0=
EXTT1=
EXTT2=
EXTT3=
EXTT4=
EXTT5=
EXTT6=
EXTT7=
EXTT8=
EXTT9=
EXTT10=
PLAYORDER=
